<svg xmlns="http://www.w3.org/2000/svg" viewBox="0 0 800 400" fill="none">
  <defs>
    <linearGradient id="bg1" x1="0" y1="0" x2="800" y2="400">
      <stop offset="0%" stop-color="#0f172a"/>
      <stop offset="100%" stop-color="#1e293b"/>
    </linearGradient>
    <linearGradient id="accent1" x1="0" y1="0" x2="1" y2="1">
      <stop offset="0%" stop-color="#3b82f6"/>
      <stop offset="100%" stop-color="#8b5cf6"/>
    </linearGradient>
  </defs>
  <rect width="800" height="400" fill="url(#bg1)"/>
  <!-- Knowledge Graph Nodes -->
  <circle cx="400" cy="180" r="35" fill="url(#accent1)" opacity="0.9"/>
  <circle cx="250" cy="120" r="22" fill="#3b82f6" opacity="0.7"/>
  <circle cx="550" cy="120" r="22" fill="#8b5cf6" opacity="0.7"/>
  <circle cx="200" cy="250" r="18" fill="#3b82f6" opacity="0.5"/>
  <circle cx="320" cy="300" r="18" fill="#6366f1" opacity="0.5"/>
  <circle cx="480" cy="300" r="18" fill="#8b5cf6" opacity="0.5"/>
  <circle cx="600" cy="250" r="18" fill="#a78bfa" opacity="0.5"/>
  <circle cx="150" cy="180" r="14" fill="#3b82f6" opacity="0.3"/>
  <circle cx="650" cy="180" r="14" fill="#a78bfa" opacity="0.3"/>
  <!-- Edges -->
  <line x1="400" y1="180" x2="250" y2="120" stroke="#3b82f6" stroke-width="2" opacity="0.4"/>
  <line x1="400" y1="180" x2="550" y2="120" stroke="#8b5cf6" stroke-width="2" opacity="0.4"/>
  <line x1="400" y1="180" x2="320" y2="300" stroke="#6366f1" stroke-width="2" opacity="0.4"/>
  <line x1="400" y1="180" x2="480" y2="300" stroke="#8b5cf6" stroke-width="2" opacity="0.4"/>
  <line x1="250" y1="120" x2="200" y2="250" stroke="#3b82f6" stroke-width="1.5" opacity="0.3"/>
  <line x1="250" y1="120" x2="150" y2="180" stroke="#3b82f6" stroke-width="1.5" opacity="0.3"/>
  <line x1="550" y1="120" x2="600" y2="250" stroke="#a78bfa" stroke-width="1.5" opacity="0.3"/>
  <line x1="550" y1="120" x2="650" y2="180" stroke="#a78bfa" stroke-width="1.5" opacity="0.3"/>
  <line x1="200" y1="250" x2="320" y2="300" stroke="#6366f1" stroke-width="1.5" opacity="0.2"/>
  <line x1="480" y1="300" x2="600" y2="250" stroke="#a78bfa" stroke-width="1.5" opacity="0.2"/>
  <!-- Agent icons (small squares) -->
  <rect x="385" y="165" width="30" height="30" rx="6" fill="none" stroke="white" stroke-width="2" opacity="0.9"/>
  <circle cx="395" cy="176" r="3" fill="white" opacity="0.9"/>
  <circle cx="405" cy="176" r="3" fill="white" opacity="0.9"/>
  <path d="M392 186 h16" stroke="white" stroke-width="2" stroke-linecap="round" opacity="0.9"/>
  <!-- Decorative dots -->
  <circle cx="100" cy="50" r="3" fill="#3b82f6" opacity="0.2"/>
  <circle cx="700" cy="350" r="3" fill="#8b5cf6" opacity="0.2"/>
  <circle cx="720" cy="60" r="4" fill="#a78bfa" opacity="0.15"/>
  <circle cx="80" cy="340" r="4" fill="#3b82f6" opacity="0.15"/>
</svg>
