<svg xmlns="http://www.w3.org/2000/svg" viewBox="0 0 800 400" fill="none">
  <defs>
    <linearGradient id="bg4" x1="0" y1="0" x2="800" y2="400">
      <stop offset="0%" stop-color="#0f172a"/>
      <stop offset="100%" stop-color="#1a2332"/>
    </linearGradient>
    <linearGradient id="accent4" x1="0" y1="0" x2="1" y2="1">
      <stop offset="0%" stop-color="#06b6d4"/>
      <stop offset="100%" stop-color="#8b5cf6"/>
    </linearGradient>
  </defs>
  <rect width="800" height="400" fill="url(#bg4)"/>
  <!-- Dashboard frame -->
  <rect x="150" y="60" width="500" height="280" rx="12" fill="#1e293b" stroke="#334155" stroke-width="1.5"/>
  <!-- Top bar -->
  <rect x="150" y="60" width="500" height="35" rx="12" fill="#1e293b"/>
  <rect x="150" y="83" width="500" height="12" fill="#1e293b"/>
  <circle cx="172" cy="78" r="5" fill="#ef4444" opacity="0.6"/>
  <circle cx="190" cy="78" r="5" fill="#f59e0b" opacity="0.6"/>
  <circle cx="208" cy="78" r="5" fill="#10b981" opacity="0.6"/>
  <line x1="150" y1="95" x2="650" y2="95" stroke="#334155" stroke-width="1"/>
  <!-- Chart area - bar chart -->
  <rect x="180" y="230" width="30" height="80" rx="4" fill="#06b6d4" opacity="0.4"/>
  <rect x="225" y="200" width="30" height="110" rx="4" fill="#06b6d4" opacity="0.5"/>
  <rect x="270" y="180" width="30" height="130" rx="4" fill="#06b6d4" opacity="0.6"/>
  <rect x="315" y="160" width="30" height="150" rx="4" fill="url(#accent4)" opacity="0.7"/>
  <rect x="360" y="170" width="30" height="140" rx="4" fill="#8b5cf6" opacity="0.5"/>
  <rect x="405" y="190" width="30" height="120" rx="4" fill="#8b5cf6" opacity="0.4"/>
  <!-- Line chart overlay -->
  <polyline points="195,225 240,195 285,175 330,150 375,162 420,185" fill="none" stroke="#10b981" stroke-width="2" opacity="0.7"/>
  <circle cx="195" cy="225" r="3" fill="#10b981" opacity="0.8"/>
  <circle cx="240" cy="195" r="3" fill="#10b981" opacity="0.8"/>
  <circle cx="285" cy="175" r="3" fill="#10b981" opacity="0.8"/>
  <circle cx="330" cy="150" r="4" fill="#10b981" opacity="0.9"/>
  <circle cx="375" cy="162" r="3" fill="#10b981" opacity="0.8"/>
  <circle cx="420" cy="185" r="3" fill="#10b981" opacity="0.8"/>
  <!-- Stats panel right side -->
  <rect x="470" y="110" width="160" height="50" rx="8" fill="#06b6d4" opacity="0.08" stroke="#06b6d4" stroke-width="1" opacity="0.2"/>
  <text x="490" y="132" fill="#06b6d4" font-size="10" font-family="sans-serif" opacity="0.7">CTR</text>
  <text x="490" y="150" fill="#06b6d4" font-size="18" font-family="monospace" font-weight="bold" opacity="0.9">+20%</text>
  <rect x="470" y="175" width="160" height="50" rx="8" fill="#8b5cf6" opacity="0.08" stroke="#8b5cf6" stroke-width="1" opacity="0.2"/>
  <text x="490" y="197" fill="#8b5cf6" font-size="10" font-family="sans-serif" opacity="0.7">Engagement</text>
  <text x="490" y="215" fill="#8b5cf6" font-size="18" font-family="monospace" font-weight="bold" opacity="0.9">94.2%</text>
  <rect x="470" y="240" width="160" height="50" rx="8" fill="#10b981" opacity="0.08" stroke="#10b981" stroke-width="1" opacity="0.2"/>
  <text x="490" y="262" fill="#10b981" font-size="10" font-family="sans-serif" opacity="0.7">Uptime</text>
  <text x="490" y="280" fill="#10b981" font-size="18" font-family="monospace" font-weight="bold" opacity="0.9">99.9%</text>
</svg>
